<?xml version="1.0" encoding="UTF-8" standalone="no"?><!DOCTYPE svg PUBLIC "-//W3C//DTD SVG 1.1//EN" "http://www.w3.org/Graphics/SVG/1.1/DTD/svg11.dtd"><svg width="100%" height="100%" viewBox="0 0 1009 1146" version="1.1" xmlns="http://www.w3.org/2000/svg" xmlns:xlink="http://www.w3.org/1999/xlink" xml:space="preserve" xmlns:serif="http://www.serif.com/" style="fill-rule:evenodd;clip-rule:evenodd;stroke-linejoin:round;stroke-miterlimit:2;"><g><path d="M884.808,844.462c-3.729,-8.367 -12.025,-13.75 -21.183,-13.75l-99.829,0c-102.879,0 -197.283,74.679 -216.146,180.846c-2.488,14.008 8.758,26.779 22.983,26.779l105.008,0c9.225,0 17.571,5.467 21.258,13.921l34.604,79.342c3.687,8.454 12.033,13.921 21.258,13.921l230.496,0c16.792,0 28.017,-17.296 21.183,-32.633l-119.633,-268.425Z" style="fill:#074ea2;fill-rule:nonzero;"/><path d="M121.667,844.779c3.725,-8.367 12.025,-13.754 21.183,-13.754l99.829,0c102.875,0 197.288,74.683 216.146,180.846c2.488,14.013 -8.758,26.783 -22.983,26.783l-105.012,0c-9.221,0 -17.571,5.467 -21.254,13.921l-34.604,79.342c-3.687,8.454 -12.033,13.917 -21.258,13.917l-230.496,0c-16.796,0 -28.017,-17.292 -21.183,-32.629l119.633,-268.425Z" style="fill:#074ea2;fill-rule:nonzero;"/><path d="M803.217,896.083l-107.688,-129.033c0,0 -176.442,10.462 -200.079,17.258c-2.138,0.612 -4.354,0.925 -6.571,0.7l-176.942,-18.033l-107.783,129.129c-5.817,6.971 -5.796,17.108 0.058,24.05l74.196,88.029c7.5,8.9 21.217,8.867 28.671,-0.067l103.163,-123.592l186.921,0.025l103.138,123.562c7.458,8.933 21.175,8.967 28.675,0.067l74.183,-88.05c5.85,-6.938 5.875,-17.075 0.058,-24.046Z" style="fill:#46bfaf;fill-rule:nonzero;"/><path d="M823.454,338.692c0.004,-0.008 0.042,-0.083 0.042,-0.083l-0.504,-0.913c-4.388,-8.958 -9.242,-17.671 -14.454,-26.171l-70.833,-128.258c-8.642,-15.654 -31.721,-18.079 -43.933,-4.621l-91.096,100.396c-6.321,6.967 -18.521,4.258 -20.746,-4.604l-63.933,-254.529c-4.721,-18.808 -30.45,-24.771 -44.179,-10.238l-226.796,240.042c-5.6,5.542 -11.017,11.242 -16.187,17.133l-0.817,0.863l0.025,0.067c-53.058,60.892 -82.946,158.317 -77.025,243.85c11.117,160.529 144.287,295.267 324.588,307.208c211.958,13.967 376.592,-140.913 376.592,-328.604c0,-47.421 -11.033,-110.917 -30.742,-151.538Z" style="fill:#fdbe5d;fill-rule:nonzero;"/><path d="M695.529,767.05c0,0 -0.183,0.012 -0.296,0.017l-178.158,-213.471c-6.979,-8.367 -19.833,-8.367 -26.812,0l-178.129,213.4l-0.196,-0.021l0.108,0.129l-0.158,0.183l98.308,117.55l0.154,-0.183l82.592,98.758c5.588,6.692 15.871,6.692 21.458,0l82.608,-98.679l0.104,0.129l98.367,-117.5l-0.104,-0.129l0.154,-0.183Z" style="fill:#00b9e9;fill-rule:nonzero;"/><path d="M495.45,784.308c-0.508,0.146 -1.033,0.204 -1.55,0.317c4.112,-4.65 10.687,-5.587 15.833,-2.858c-6.508,0.883 -11.492,1.737 -14.283,2.542Z" style="fill:#59c7da;fill-rule:nonzero;"/><path d="M627.417,761.529l-78.429,0l56.687,-58.129c2.096,-2.15 2.046,-5.608 -0.104,-7.704c-1.038,-1.013 -2.488,-1.508 -3.867,-1.546c-1.454,0.021 -2.817,0.604 -3.833,1.646l-64.087,65.733l-24.567,0l0,-24.696l63.1,-64.108c2.104,-2.138 2.079,-5.592 -0.062,-7.696c-2.138,-2.1 -5.588,-2.087 -7.704,0.062l-55.333,56.212l0,-77.975c0,-3.004 -2.442,-5.446 -5.446,-5.446c-3.004,0 -5.45,2.442 -5.45,5.446l0,77.975l-55.333,-56.217c-2.096,-2.133 -5.554,-2.167 -7.708,-0.058c-1.033,1.017 -1.608,2.379 -1.617,3.833c-0.017,1.458 0.542,2.825 1.562,3.863l63.096,64.108l0,24.696l-25.383,0l-64.096,-65.733c-1.017,-1.042 -2.371,-1.625 -3.825,-1.646c-1.483,0.017 -2.833,0.529 -3.875,1.546c-2.15,2.096 -2.192,5.554 -0.096,7.704l56.683,58.129l-77.608,0c-3,0 -5.446,2.442 -5.446,5.446c0,3.004 2.446,5.45 5.446,5.45l76.808,0l-55.721,52.537c-2.183,2.063 -2.288,5.517 -0.225,7.7c1.992,2.113 5.579,2.225 7.696,0.225l64.121,-60.462l25.521,0l0,22.454l-63.096,64.104c-1.021,1.038 -1.579,2.408 -1.562,3.863c0.008,1.454 0.583,2.821 1.625,3.842c1.033,1.021 2.546,1.583 3.867,1.562c1.454,-0.008 2.817,-0.587 3.833,-1.625l55.333,-56.217l0,80.212c0,3.004 2.446,5.45 5.45,5.45c3.004,0 5.446,-2.446 5.446,-5.45l0,-80.212l55.337,56.217c2.042,2.079 5.621,2.1 7.7,0.058c2.142,-2.104 2.167,-5.558 0.062,-7.7l-63.1,-64.104l0,-22.454l24.696,0l64.121,60.462c2.117,2 5.713,1.888 7.7,-0.221c0.996,-1.062 1.529,-2.446 1.483,-3.9c-0.042,-1.454 -0.65,-2.804 -1.704,-3.8l-55.725,-52.542l77.629,0c3.004,0 5.446,-2.446 5.446,-5.45c0,-3.004 -2.442,-5.446 -5.446,-5.446Z" style="fill:#fff;fill-rule:nonzero;"/><path d="M267.354,683.8c98.483,0 188.629,-75.787 197.592,-180.958c0.833,-9.804 9.188,-17.25 19.025,-17.25l32.533,0c9.842,0 18.188,7.446 19.029,17.25c8.954,105.171 99.1,180.958 197.588,180.958l43.792,0c13.917,0 23.217,-14.333 17.546,-27.042l-143.679,-321.879c-3.087,-6.925 -9.962,-11.379 -17.542,-11.379l-262.538,0c-7.579,0 -14.454,4.454 -17.542,11.379l-143.679,321.879c-5.671,12.708 3.629,27.042 17.546,27.042l40.329,0Z" style="fill:#074ea2;fill-rule:nonzero;"/></g></svg>